<mxfile host="app.diagrams.net" modified="2023-12-30T08:27:34.184Z" agent="Mozilla/5.0 (Windows NT 10.0; Win64; x64; rv:121.0) Gecko/20100101 Firefox/121.0" version="22.1.15" etag="fSC4zaGisxYD-_mS3D2U" type="github">
  <diagram name="Page-1" id="zyO4YBLQP4gD5_WW3Z1O">
    <mxGraphModel>
      <root>
        <mxCell id="0" />
        <mxCell id="1" parent="0" />
      </root>
    </mxGraphModel>
  </diagram>
</mxfile>
